<svg width="16" height="14" viewBox="0 0 16 14" fill="none" xmlns="http://www.w3.org/2000/svg">
<path fill-rule="evenodd" clip-rule="evenodd" d="M7.99966 12.1677L4.82131 13.7744C4.1519 14.1128 3.32393 13.8653 2.972 13.2216C2.83186 12.9653 2.7835 12.6717 2.83441 12.3863L3.44142 8.98318L0.870079 6.57306C0.328513 6.06545 0.317432 5.2318 0.845328 4.71105C1.05554 4.50368 1.33098 4.36873 1.62901 4.32709L5.18252 3.83058L6.77169 0.734296C7.1064 0.08217 7.92751 -0.185577 8.6057 0.136267C8.87576 0.264426 9.09435 0.474616 9.22763 0.734296L10.8168 3.83058L14.3703 4.32709C15.1187 4.43166 15.6373 5.09984 15.5286 5.8195C15.4852 6.10607 15.3449 6.37093 15.1292 6.57306L12.5579 8.98318L13.1649 12.3863C13.2928 13.1031 12.7921 13.7838 12.0467 13.9067C11.7499 13.9557 11.4446 13.9092 11.178 13.7744L7.99966 12.1677Z" fill="#F8D7A4"/>
</svg>
