<svg width="27" height="30" viewBox="0 0 27 30" fill="none" xmlns="http://www.w3.org/2000/svg">
<path d="M13.4252 0.0600586C6.19685 0.0600586 0.282715 6.79506 0.282715 15.0901C0.282715 22.5901 5.09288 28.8151 11.375 29.9401V19.4401H8.0368V15.0901H11.375V11.7751C11.375 8.01006 13.3332 5.94006 16.3429 5.94006C17.7754 5.94006 19.2737 6.22506 19.2737 6.22506V9.93006H17.6177C15.988 9.93006 15.4755 11.0851 15.4755 12.2701V15.0901H19.1291L18.5377 19.4401H15.4755V29.9401C18.5724 29.3818 21.3925 27.5783 23.4266 24.8552C25.4607 22.132 26.5748 18.6685 26.5678 15.0901C26.5678 6.79506 20.6536 0.0600586 13.4252 0.0600586Z" fill="#12273D"/>
</svg>
