<svg width="27" height="30" viewBox="0 0 27 30" fill="none" xmlns="http://www.w3.org/2000/svg">
<path d="M7.93126 0H18.971C23.1766 0 26.5936 3.9 26.5936 8.7V21.3C26.5936 23.6074 25.7905 25.8203 24.361 27.4518C22.9315 29.0834 20.9926 30 18.971 30H7.93126C3.72565 30 0.308594 26.1 0.308594 21.3V8.7C0.308594 6.39262 1.11169 4.17974 2.54122 2.54817C3.97075 0.916605 5.9096 0 7.93126 0ZM7.66841 3C6.41359 3 5.21016 3.56893 4.32287 4.58162C3.43557 5.59432 2.9371 6.96783 2.9371 8.4V21.6C2.9371 24.585 5.05304 27 7.66841 27H19.2338C20.4886 27 21.6921 26.4311 22.5794 25.4184C23.4667 24.4057 23.9651 23.0322 23.9651 21.6V8.4C23.9651 5.415 21.8492 3 19.2338 3H7.66841ZM20.3509 5.25C20.7866 5.25 21.2045 5.44754 21.5126 5.79918C21.8207 6.15081 21.9938 6.62772 21.9938 7.125C21.9938 7.62228 21.8207 8.0992 21.5126 8.45083C21.2045 8.80246 20.7866 9 20.3509 9C19.9152 9 19.4974 8.80246 19.1893 8.45083C18.8812 8.0992 18.7081 7.62228 18.7081 7.125C18.7081 6.62772 18.8812 6.15081 19.1893 5.79918C19.4974 5.44754 19.9152 5.25 20.3509 5.25ZM13.4511 7.5C15.1939 7.5 16.8654 8.29018 18.0977 9.6967C19.3301 11.1032 20.0224 13.0109 20.0224 15C20.0224 16.9891 19.3301 18.8968 18.0977 20.3033C16.8654 21.7098 15.1939 22.5 13.4511 22.5C11.7083 22.5 10.0369 21.7098 8.80453 20.3033C7.57218 18.8968 6.87986 16.9891 6.87986 15C6.87986 13.0109 7.57218 11.1032 8.80453 9.6967C10.0369 8.29018 11.7083 7.5 13.4511 7.5ZM13.4511 10.5C12.4054 10.5 11.4026 10.9741 10.6632 11.818C9.92376 12.6619 9.50836 13.8065 9.50836 15C9.50836 16.1935 9.92376 17.3381 10.6632 18.182C11.4026 19.0259 12.4054 19.5 13.4511 19.5C14.4968 19.5 15.4997 19.0259 16.2391 18.182C16.9785 17.3381 17.3939 16.1935 17.3939 15C17.3939 13.8065 16.9785 12.6619 16.2391 11.818C15.4997 10.9741 14.4968 10.5 13.4511 10.5Z" fill="#12273D"/>
</svg>
