<svg width="26" height="24" viewBox="0 0 26 24" fill="none" xmlns="http://www.w3.org/2000/svg">
<path d="M25.819 2.94025C24.8764 3.40431 23.8507 3.7383 22.7942 3.86837C23.8911 3.12459 24.7125 1.94954 25.1044 0.563686C24.075 1.26255 22.9474 1.75261 21.7715 2.01212C21.28 1.41245 20.6856 0.934725 20.0253 0.608713C19.365 0.2827 18.6529 0.115388 17.9335 0.117202C15.0226 0.117202 12.6816 2.81017 12.6816 6.11486C12.6816 6.57892 12.7309 7.04298 12.811 7.48947C8.45238 7.22931 4.56506 4.85275 1.98071 1.21408C1.50981 2.13206 1.26305 3.17729 1.26609 4.24103C1.26609 6.32228 2.19325 8.15744 3.6071 9.23673C2.7739 9.19928 1.9602 8.9379 1.2322 8.47384V8.54767C1.2322 11.4621 3.03725 13.8774 5.44294 14.4328C4.99125 14.5667 4.52658 14.6352 4.0599 14.6367C3.71799 14.6367 3.39456 14.5981 3.06805 14.5453C3.73339 16.9219 5.67088 18.6481 7.97801 18.7043C6.17297 20.318 3.91205 21.2672 1.45706 21.2672C1.01658 21.2672 0.609987 21.2496 0.187988 21.1934C2.51668 22.8985 5.27969 23.8828 8.25524 23.8828C17.915 23.8828 23.2008 14.7492 23.2008 6.8215C23.2008 6.56134 23.2008 6.30119 23.1854 6.04103C24.208 5.18673 25.1044 4.12853 25.819 2.94025Z" fill="#12273D"/>
</svg>
