<svg width="80" height="80" viewBox="0 0 80 80" fill="none" xmlns="http://www.w3.org/2000/svg">
<path d="M40.0004 15.8481C46.7227 15.8481 52.6983 18.5868 57.056 22.9441C61.5383 27.3015 64.152 33.4013 64.152 40.1247C64.152 46.7224 61.5383 52.8226 57.056 57.18C52.6987 61.5373 46.7227 64.2763 40.0004 64.2763C33.2773 64.2763 27.3017 61.5377 22.8202 57.18C18.4628 52.8226 15.7242 46.7228 15.7242 40.1247C15.7242 33.4017 18.4628 27.3019 22.8202 22.9441C27.3017 18.5868 33.2773 15.8481 40.0004 15.8481ZM40.0004 16.2211C33.4023 16.2211 27.4267 18.9598 23.1931 23.1933C18.8358 27.5502 16.0971 33.5262 16.0971 40.1243C16.0971 46.7221 18.8358 52.698 23.1931 56.9304C27.4263 61.2878 33.4023 63.9026 40.0004 63.9026C46.5981 63.9026 52.5745 61.2881 56.8065 56.9304C61.1638 52.698 63.7787 46.7221 63.7787 40.1243C63.7787 33.5262 61.1638 27.5502 56.8065 23.1933C52.5745 18.9601 46.5981 16.2211 40.0004 16.2211Z" fill="#C5C5C1"/>
<path d="M40.0004 3.0249C48.4659 3.0249 56.3097 5.88776 62.5333 10.6192L66.6412 6.511L73.8625 13.7312L69.7543 17.9643C74.3608 24.1895 76.9745 31.7826 76.9745 39.9994C76.9745 60.4165 60.4172 77.0988 40 77.0988C19.5829 77.0988 3.02478 60.4165 3.02478 39.9994C3.02516 19.583 19.5833 3.0249 40.0004 3.0249ZM40.0004 11.7396C24.4385 11.7396 11.7398 24.4375 11.7398 39.9994C11.7398 55.6862 24.4385 68.26 40.0004 68.26C55.5623 68.26 68.2602 55.6862 68.2602 39.9994C68.2602 24.4375 55.5623 11.7396 40.0004 11.7396Z" fill="url(#paint0_radial_460_1581)"/>
<path d="M40.0004 11.6147C47.8438 11.6147 54.9398 14.7275 60.1684 19.9561C65.272 25.0605 68.5093 32.1565 68.5093 40.1241C68.5093 47.9675 65.2724 55.0627 60.1684 60.2921C54.9394 65.3957 47.8434 68.633 40.0004 68.633C32.1569 68.633 24.9367 65.3961 19.8324 60.2921C14.728 55.0624 11.491 47.9671 11.491 40.1241C11.491 32.1565 14.728 25.0605 19.8324 19.9561C24.9367 14.7275 32.1569 11.6147 40.0004 11.6147ZM40.0004 11.9888C32.2819 11.9888 25.1855 15.1008 20.0811 20.2052C14.9767 25.3088 11.8644 32.281 11.8644 40.1245C11.8644 47.8429 14.9764 54.9389 20.0811 60.0433C25.1855 65.0227 32.2819 68.2597 40.0004 68.2597C47.7188 68.2597 54.8148 65.0227 59.9196 60.0433C65.0228 54.9389 68.136 47.8429 68.136 40.1245C68.136 32.281 65.0228 25.3088 59.9196 20.2052C54.8148 15.1008 47.7188 11.9888 40.0004 11.9888Z" fill="url(#paint1_linear_460_1581)"/>
<path d="M40.0004 2.77588C48.4659 2.77588 56.4335 5.63912 62.6587 10.4944L62.5337 10.6193C56.3097 5.88788 48.4659 3.02502 40.0007 3.02502C19.5836 3.02502 3.02551 19.5831 3.02551 39.9995C3.02551 60.4166 19.5836 77.0989 40.0007 77.0989C60.4179 77.0989 76.9752 60.4166 76.9752 39.9995C76.9752 31.7831 74.3615 24.1896 69.755 17.9645L69.8792 17.8395C74.4857 24.0646 77.2244 31.6585 77.2244 39.9995C77.2244 50.3325 72.992 59.6696 66.2689 66.3923C59.5459 73.1153 50.3337 77.2239 40.0007 77.2239C29.7916 77.2239 20.4548 73.1157 13.7326 66.3923C7.00951 59.545 2.77637 50.3325 2.77637 39.9995C2.77637 29.7911 7.00951 20.4544 13.7326 13.7313C20.4545 7.00826 29.667 2.77588 40.0004 2.77588Z" fill="url(#paint2_radial_460_1581)"/>
<path d="M40.0004 11.8638C55.5623 11.8638 68.2602 24.4379 68.2602 40.1247C68.2602 55.6866 55.5623 68.3845 40.0004 68.3845C24.4385 68.3845 11.7398 55.6866 11.7398 40.1247C11.7398 24.4375 24.4385 11.8638 40.0004 11.8638ZM40.0004 15.8482C26.6792 15.8482 15.848 26.6794 15.848 40.1247C15.848 53.4459 26.6792 64.276 40.0004 64.276C53.3215 64.276 64.1516 53.4455 64.1516 40.1247C64.1516 26.679 53.3215 15.8482 40.0004 15.8482Z" fill="url(#paint3_radial_460_1581)"/>
<path opacity="0.67" d="M17.0671 47.6597H3.82898C4.15546 49.2151 4.60803 50.721 5.12384 52.1987H19.1128C18.2838 50.7698 17.5924 49.254 17.0671 47.6597Z" fill="url(#paint4_linear_460_1581)"/>
<path opacity="0.86" d="M62.9512 47.6597H76.1897C75.8629 49.2151 75.4103 50.721 74.8945 52.1987H60.9055C61.7349 50.7698 62.4263 49.254 62.9512 47.6597Z" fill="url(#paint5_linear_460_1581)"/>
<path d="M76.8507 30.6626C77.7219 33.6508 78.0952 36.7628 78.0952 39.9997C78.0952 43.3616 77.5977 46.5986 76.8507 49.7106H3.27429V49.5856H76.7261C77.5981 46.4736 77.9714 43.2367 77.9714 39.8755C77.9711 36.6386 77.5977 33.5266 76.8507 30.6626Z" fill="#1A171B"/>
<path d="M3.15012 30.5386H76.8511C77.5981 33.5264 77.9711 36.6384 77.9711 39.8753C77.9711 43.2365 77.5981 46.4734 76.7257 49.5854H3.27431C2.40269 46.4734 1.90479 43.2365 1.90479 39.8753C1.90479 36.6384 2.40269 33.5264 3.15012 30.5386Z" fill="url(#paint6_radial_460_1581)"/>
<path d="M68.136 4.02148L76.3527 12.2382L70.2526 18.3381L70.6259 18.836L66.2686 22.3224L64.8987 22.8203L73.8628 13.7316L66.6415 6.51139L57.6785 15.4752L58.0522 14.2299L68.136 4.02148Z" fill="url(#paint7_linear_460_1581)"/>
<path d="M59.9196 3.14941C67.1398 7.00884 72.9912 12.9845 76.9749 20.0805V3.14941H59.9196Z" fill="url(#paint8_radial_460_1581)"/>
<path d="M59.9196 3.14941C67.1398 7.00884 72.9912 12.9845 76.9749 20.0805" stroke="#B1B0A8" stroke-width="0.3402" stroke-linecap="round"/>
<path d="M59.9196 3.14941C67.0156 7.00884 72.9912 12.9845 76.8507 20.0805" stroke="#CBCAC4" stroke-width="0.2361" stroke-linecap="round"/>
<path d="M59.7947 3.14941C67.0156 7.00884 72.8663 12.9845 76.8507 20.2054" stroke="#E6E6E1" stroke-width="0.1324" stroke-linecap="round"/>
<path d="M59.7947 3.14941C66.8907 7.13379 72.8663 12.9845 76.7257 20.2054" stroke="white" stroke-width="0.0283" stroke-linecap="round"/>
<path d="M76.9749 2.77588C77.0998 2.77588 77.224 2.90007 77.224 3.14883H59.9196H59.6705C59.6705 2.90007 59.7947 2.77588 59.9196 2.77588H76.9749Z" fill="url(#paint9_linear_460_1581)"/>
<path d="M77.224 20.0803C77.224 20.3294 77.0998 20.4544 76.9749 20.4544L76.8511 20.2052V2.77588C76.8511 2.77588 76.8511 2.77588 76.9749 2.77588C77.0998 2.77588 77.224 2.90007 77.224 3.14883V20.0803Z" fill="url(#paint10_linear_460_1581)"/>
<path d="M3.28421 30.6821C2.53717 33.6703 2.03888 36.7823 2.03888 40.0193C2.03888 40.2871 2.13107 41.8734 2.13755 42.1393L2.35355 44.5438C2.35012 44.3496 2.25564 40.4303 2.25564 40.2353C2.25564 36.9983 2.79507 33.996 3.54212 31.0078L29.6229 30.8981L40.8796 30.6821H3.28421Z" fill="url(#paint11_linear_460_1581)"/>
<path d="M66.6415 44.6175C63.3409 44.6175 60.6552 42.6019 60.6552 40.1246C60.6552 37.6465 63.3409 35.6309 66.6415 35.6309C70.0122 35.6309 72.7543 37.6469 72.7543 40.1246C72.7539 42.6019 70.0118 44.6175 66.6415 44.6175ZM66.6415 36.8991C65.4225 36.8991 64.5379 38.2556 64.5379 40.1246C64.5379 41.8922 65.4423 43.2251 66.6415 43.2251C67.7828 43.2251 68.7466 41.8053 68.7466 40.1246C68.7466 38.3459 67.8023 36.8991 66.6415 36.8991ZM28.7958 44.6175C25.4944 44.6175 22.8087 42.6019 22.8087 40.1246C22.8087 37.7562 25.5504 35.7558 28.7958 35.7558C32.1657 35.7558 34.907 37.7158 34.907 40.1246C34.907 42.6019 32.1657 44.6175 28.7958 44.6175ZM28.7958 37.0229C27.5958 37.0229 26.6906 38.3562 26.6906 40.1246C26.6906 41.8922 27.5958 43.2251 28.7958 43.2251C29.9371 43.2251 30.9009 41.8053 30.9009 40.1246C30.9013 38.4434 29.9371 37.0229 28.7958 37.0229ZM50.9558 44.3684L47.0868 37.1421L45.1051 37.1482L45.0937 36.0168L53.571 36.0053L53.5824 37.1368L51.4541 37.1482L54.4522 42.2354L57.0461 37.1318L55.5623 37.1482L55.5508 36.0168L61.4133 36.0053L61.4247 37.1368L59.4213 37.1482L55.5691 44.3688H50.9558V44.3684ZM35.3939 44.3684L35.3824 42.9874L37.3855 42.976L37.3741 37.1368L35.3939 37.1482L35.3824 36.0168L43.2373 36.0053L43.2487 37.1368L41.2445 37.1482L41.256 42.9878L43.3611 42.9764C44.0419 42.9764 45.8365 42.531 45.9642 40.4975L47.2202 40.4869L47.2316 44.3688H35.3939V44.3684ZM13.1093 44.3684L9.23997 37.1421L7.25825 37.1482L7.24683 36.0168L15.7238 36.0053L15.7352 37.1368L13.6072 37.1482L16.6049 42.2354L19.3238 37.1314L17.7154 37.1482L17.704 36.0168L23.5672 36.0053L23.5786 37.1368L21.5748 37.1482L17.7226 44.3688H13.1093V44.3684Z" fill="white"/>
<path d="M66.6415 35.6424C70.0038 35.6424 72.7428 37.6348 72.7428 40.125C72.7428 42.6146 70.0042 44.6066 66.6415 44.6066C63.4057 44.6066 60.6667 42.6146 60.6667 40.125C60.6667 37.6348 63.4053 35.6424 66.6415 35.6424ZM66.6415 43.2367C67.7619 43.2367 68.7585 41.8671 68.7585 40.1247C68.7585 38.2572 67.7623 36.8877 66.6415 36.8877C65.3973 36.8877 64.5261 38.2572 64.5261 40.1247C64.5261 41.8671 65.3973 43.2367 66.6415 43.2367ZM28.7958 35.7673C32.1569 35.7673 34.8956 37.7593 34.8956 40.1247C34.8956 42.6142 32.1569 44.6062 28.7958 44.6062C25.5588 44.6062 22.8198 42.6142 22.8198 40.1247C22.8202 37.759 25.5588 35.7673 28.7958 35.7673ZM28.7958 43.2367C29.9162 43.2367 30.9124 41.8671 30.9124 40.1247C30.9124 38.3822 29.9162 37.0115 28.7958 37.0115C27.5505 37.0115 26.6792 38.3822 26.6792 40.1247C26.6792 41.8671 27.5505 43.2367 28.7958 43.2367ZM61.4129 36.0165V37.1365H59.4209L55.5619 44.3567H50.9554L47.0964 37.1365H45.1047V36.0165H53.5707V37.1365H51.4537L54.4419 42.2409L57.0556 37.1365H55.5619V36.0165H61.4129ZM43.2373 36.0165V37.1365H41.2449V42.9871C41.2449 42.9871 42.6145 42.9871 43.3619 42.9871C44.1089 42.9871 45.8514 42.49 45.9764 40.4976C46.9718 40.4976 47.2209 40.4976 47.2209 40.4976V44.3567H37.3855H35.3939V42.9871H37.3855V37.1365H35.3939V36.0165H43.2373ZM23.5672 36.0165V37.1365H21.5748L17.7158 44.3567H13.1093L9.25027 37.1365H7.25827V36.0165H15.7242V37.1365H13.6076L16.5954 42.2409L19.3341 37.1365H17.7154V36.0165H23.5672ZM66.6415 35.6191C63.3345 35.6191 60.6442 37.6405 60.6442 40.1247C60.6442 42.6085 63.3348 44.6287 66.6415 44.6287C70.0183 44.6287 72.7653 42.6081 72.7653 40.1247C72.7653 37.6405 70.0183 35.6191 66.6415 35.6191ZM66.6415 43.2142C65.4484 43.2142 64.5489 41.8862 64.5489 40.125C64.5489 38.2626 65.4293 36.9109 66.6415 36.9109C67.7962 36.9109 68.7356 38.3529 68.7356 40.125C68.7356 41.7993 67.7764 43.2142 66.6415 43.2142ZM28.7958 35.7445C25.544 35.7445 22.7969 37.7506 22.7969 40.125C22.7969 42.6089 25.488 44.629 28.7958 44.629C32.1718 44.629 34.9185 42.6085 34.9185 40.125C34.9188 37.7094 32.1722 35.7445 28.7958 35.7445ZM28.7958 43.2142C27.6023 43.2142 26.7021 41.8862 26.7021 40.125C26.7021 38.3631 27.6023 37.0348 28.7958 37.0348C29.9307 37.0348 30.8895 38.45 30.8895 40.125C30.8895 41.7993 29.9307 43.2142 28.7958 43.2142ZM61.4358 35.9936H61.4129H55.5623H55.5394V36.0165V37.1365V37.1593H55.5623H57.0187L54.4404 42.1932L51.4937 37.1593H53.5707H53.5935V37.1365V36.0165V35.9936H53.5707H45.1047H45.0819V36.0165V37.1365V37.1593H45.1047H47.0826L50.9352 44.3673L50.9417 44.3791H50.9554H55.5619H55.5756L55.5821 44.3673L59.4347 37.1593H61.4126H61.4354V37.1365V36.0165V35.9936H61.4358ZM43.2602 35.9936H43.2373H35.3939H35.371V36.0165V37.1365V37.1593H35.3939H37.3627V42.9647H35.3939H35.371V42.9875V44.357V44.3799H35.3939H37.3855H47.2206H47.2434V44.357V40.498V40.4751H47.2206H45.976H45.9543L45.9531 40.4965C45.8259 42.5212 44.0392 42.9647 43.3611 42.9647H41.267V37.1593H43.2369H43.2598V37.1365V36.0165V35.9936H43.2602ZM23.5901 35.9936H23.5672H17.7154H17.6926V36.0165V37.1365V37.1593H17.7154H19.2956L16.5943 42.1944L13.6472 37.1597H15.7242H15.747V37.1369V36.0169V35.994H15.7242H7.25827H7.23541V36.0169V37.1369V37.1597H7.25827H9.23617L13.0891 44.3677L13.0956 44.3795H13.1093H17.7158H17.7295L17.736 44.3677L21.5886 37.1593H23.5672H23.5901V37.1365V36.0165V35.9936Z" fill="#1D2D28"/>
<defs>
<radialGradient id="paint0_radial_460_1581" cx="0" cy="0" r="1" gradientUnits="userSpaceOnUse" gradientTransform="translate(13.5631 32.7064) scale(77.2302)">
<stop stop-color="white"/>
<stop offset="0.0469" stop-color="#FCFCFB"/>
<stop offset="0.2247" stop-color="#FAFAF9"/>
<stop offset="0.3719" stop-color="#B9B9B8"/>
<stop offset="0.4972" stop-color="#888887"/>
<stop offset="0.5923" stop-color="#6A6A69"/>
<stop offset="0.6461" stop-color="#5F5F5E"/>
<stop offset="0.7275" stop-color="#555554"/>
<stop offset="0.8673" stop-color="#3A3939"/>
<stop offset="1" stop-color="#1B1919"/>
</radialGradient>
<linearGradient id="paint1_linear_460_1581" x1="25.4068" y1="35.0869" x2="53.0962" y2="44.6212" gradientUnits="userSpaceOnUse">
<stop stop-color="#E2E2DC"/>
<stop offset="1" stop-color="white"/>
</linearGradient>
<radialGradient id="paint2_radial_460_1581" cx="0" cy="0" r="1" gradientUnits="userSpaceOnUse" gradientTransform="translate(61.9769 63.8306) scale(84.7574 84.7574)">
<stop stop-color="#C5C6C2"/>
<stop offset="1" stop-color="#868680"/>
</radialGradient>
<radialGradient id="paint3_radial_460_1581" cx="0" cy="0" r="1" gradientUnits="userSpaceOnUse" gradientTransform="translate(53.333 53.457) scale(59.5203 59.5203)">
<stop stop-color="white"/>
<stop offset="0.1986" stop-color="#F2F2F3"/>
<stop offset="0.2978" stop-color="#EAEAEB"/>
<stop offset="0.2992" stop-color="#E9E9EA"/>
<stop offset="0.3715" stop-color="#C3C3C3"/>
<stop offset="0.443" stop-color="#A5A5A5"/>
<stop offset="0.5126" stop-color="#8F8F8F"/>
<stop offset="0.5794" stop-color="#828281"/>
<stop offset="0.6404" stop-color="#7E7E7D"/>
<stop offset="0.7534" stop-color="#545352"/>
<stop offset="0.8551" stop-color="#353333"/>
<stop offset="0.9408" stop-color="#222020"/>
<stop offset="1" stop-color="#1B1919"/>
</radialGradient>
<linearGradient id="paint4_linear_460_1581" x1="11.4708" y1="52.4151" x2="11.4708" y2="49.7495" gradientUnits="userSpaceOnUse">
<stop stop-color="white" stop-opacity="0"/>
<stop offset="0.17" stop-color="#FAFAF9" stop-opacity="0"/>
<stop offset="0.427" stop-color="#BBBBB8" stop-opacity="0.1"/>
<stop offset="0.5232" stop-color="#8F8F8C" stop-opacity="0.2"/>
<stop offset="0.6238" stop-color="#686866" stop-opacity="0.3"/>
<stop offset="0.7234" stop-color="#4A4948" stop-opacity="0.6"/>
<stop offset="0.8206" stop-color="#343432" stop-opacity="0.8"/>
<stop offset="0.9141" stop-color="#272625" stop-opacity="0.9"/>
<stop offset="1" stop-color="#232221"/>
</linearGradient>
<linearGradient id="paint5_linear_460_1581" x1="68.5476" y1="52.4151" x2="68.5476" y2="49.7495" gradientUnits="userSpaceOnUse">
<stop stop-color="white" stop-opacity="0"/>
<stop offset="0.17" stop-color="#FAFAF9" stop-opacity="0"/>
<stop offset="0.427" stop-color="#BBBBB8" stop-opacity="0"/>
<stop offset="0.5232" stop-color="#8F8F8C" stop-opacity="0"/>
<stop offset="0.6238" stop-color="#686866" stop-opacity="0"/>
<stop offset="0.7234" stop-color="#4A4948" stop-opacity="0.25"/>
<stop offset="0.8206" stop-color="#343432" stop-opacity="0.5"/>
<stop offset="0.9141" stop-color="#272625" stop-opacity="0.75"/>
<stop offset="1" stop-color="#232221"/>
</linearGradient>
<radialGradient id="paint6_radial_460_1581" cx="0" cy="0" r="1" gradientUnits="userSpaceOnUse" gradientTransform="translate(5.35271 32.7101) scale(48.0488 48.0488)">
<stop stop-color="#006AB1"/>
<stop offset="0.0016" stop-color="#006AB1"/>
<stop offset="0.1275" stop-color="#0061A4"/>
<stop offset="0.2416" stop-color="#005E9F"/>
<stop offset="0.5062" stop-color="#00548E"/>
<stop offset="0.8371" stop-color="#004374"/>
<stop offset="0.9588" stop-color="#004173"/>
<stop offset="1" stop-color="#003B6F"/>
</radialGradient>
<linearGradient id="paint7_linear_460_1581" x1="75.6239" y1="22.5273" x2="56.8985" y2="3.80195" gradientUnits="userSpaceOnUse">
<stop offset="0.0056" stop-color="#212111"/>
<stop offset="0.6461" stop-color="#41403F"/>
<stop offset="0.6508" stop-color="#454443"/>
<stop offset="0.6558" stop-color="#52514F"/>
<stop offset="0.6608" stop-color="#666564"/>
<stop offset="0.6659" stop-color="#838281"/>
<stop offset="0.6711" stop-color="#A9A8A6"/>
<stop offset="0.6762" stop-color="#D6D5D2"/>
<stop offset="0.68" stop-color="#FDFCF9"/>
<stop offset="0.6826" stop-color="#FAF9F6"/>
<stop offset="0.6842" stop-color="#F2F1EE"/>
<stop offset="0.6856" stop-color="#E3E2DF"/>
<stop offset="0.6869" stop-color="#CECECA"/>
<stop offset="0.688" stop-color="#B3B3AF"/>
<stop offset="0.6891" stop-color="#93938E"/>
<stop offset="0.69" stop-color="#70706B"/>
<stop offset="0.6924" stop-color="#6D6D68"/>
<stop offset="0.7145" stop-color="#535250"/>
<stop offset="0.7396" stop-color="#3E3C3D"/>
<stop offset="0.7692" stop-color="#2E2B2D"/>
<stop offset="0.8059" stop-color="#222023"/>
<stop offset="0.8573" stop-color="#1C191D"/>
<stop offset="1" stop-color="#1A171B"/>
</linearGradient>
<radialGradient id="paint8_radial_460_1581" cx="0" cy="0" r="1" gradientUnits="userSpaceOnUse" gradientTransform="translate(74.0837 5.04378) scale(20.0802 20.0802)">
<stop stop-color="#555552"/>
<stop offset="1" stop-color="#50504D"/>
</radialGradient>
<linearGradient id="paint9_linear_460_1581" x1="59.6704" y1="2.96251" x2="77.224" y2="2.96251" gradientUnits="userSpaceOnUse">
<stop stop-color="#5D5D5F"/>
<stop offset="0.0852" stop-color="#505051"/>
<stop offset="0.2581" stop-color="#3C3C3C"/>
<stop offset="0.4497" stop-color="#2E2D2D"/>
<stop offset="0.6724" stop-color="#262524"/>
<stop offset="1" stop-color="#232221"/>
</linearGradient>
<linearGradient id="paint10_linear_460_1581" x1="77.0372" y1="20.4545" x2="77.0372" y2="2.77592" gradientUnits="userSpaceOnUse">
<stop stop-color="#5D5D5F"/>
<stop offset="0.096" stop-color="#555456"/>
<stop offset="0.4584" stop-color="#393939"/>
<stop offset="0.7723" stop-color="#292827"/>
<stop offset="1" stop-color="#232221"/>
</linearGradient>
<linearGradient id="paint11_linear_460_1581" x1="12.0824" y1="24.7171" x2="23.3222" y2="39.9193" gradientUnits="userSpaceOnUse">
<stop stop-color="white"/>
<stop offset="0.1091" stop-color="#D8E8F3"/>
<stop offset="0.3376" stop-color="#8CBCDC"/>
<stop offset="0.5419" stop-color="#5099C9"/>
<stop offset="0.7143" stop-color="#257FBC"/>
<stop offset="0.8481" stop-color="#0A70B4"/>
<stop offset="0.927" stop-color="#006AB1"/>
<stop offset="0.9288" stop-color="#046BB2"/>
<stop offset="0.9489" stop-color="#2678B8"/>
<stop offset="0.968" stop-color="#3E81BD"/>
<stop offset="0.9856" stop-color="#4D86C0"/>
<stop offset="1" stop-color="#5288C1"/>
</linearGradient>
</defs>
</svg>
